<svg xmlns="http://www.w3.org/2000/svg" width="24" height="24" viewBox="0 0 24 24" fill="none">
	<path d="M15.4846 8.29498C15.5439 8.35435 15.6032 8.41372 15.6624 8.47309C15.7908 8.60172 15.9093 8.72046 16.0377 8.84909C16.0575 8.86888 16.0773 8.88867 16.097 8.90846C16.2155 9.0272 16.3242 9.13604 16.4427 9.25478C16.5217 9.34384 16.5909 9.43289 16.6896 9.50215C16.7291 9.54173 16.7686 9.58131 16.8082 9.62089C16.8477 9.70005 16.9069 9.74953 16.9761 9.799C17.1242 9.95732 17.2625 10.1255 17.4304 10.2641C17.4304 10.3135 17.4502 10.3333 17.4897 10.3531C17.4897 10.4323 17.5983 10.4817 17.5193 10.5708C17.4008 10.6302 17.3514 10.7588 17.2625 10.8479C16.7094 11.3921 16.1661 11.9561 15.6032 12.5003C14.25 13.8163 12.9265 15.162 11.5931 16.4978C11.3758 16.7155 11.1387 16.9332 10.9313 17.1509C10.1905 17.9326 9.39047 18.6648 8.64969 19.4564C8.29411 19.8324 7.92866 20.1886 7.58296 20.5547C7.5237 20.6141 7.44469 20.6339 7.40518 20.713C7.09899 20.9901 6.73354 21 6.35821 21C5.34087 20.9901 4.31365 21 3.29631 21C3.19754 21 3.09877 21 3 21C3 20.9505 3 20.9011 3 20.8516C3 19.7928 3 18.7341 3 17.6654C3.00988 17.4378 2.99012 17.2202 3.05926 16.9926C3.11852 16.8046 3.20742 16.6463 3.35557 16.5176C3.86918 16.0724 4.33341 15.5677 4.81738 15.0829C6.02239 13.8955 7.20764 12.6883 8.40276 11.491C9.53863 10.3531 10.6844 9.2152 11.8104 8.0674C12.2252 7.65181 12.6302 7.22633 13.045 6.80085C13.1536 6.69201 13.2623 6.56338 13.3611 6.44464C13.4203 6.36548 13.4895 6.36548 13.5685 6.43474C13.608 6.46443 13.6574 6.48422 13.6969 6.5139C14.0327 6.84043 14.3685 7.17686 14.7043 7.50339C14.8821 7.6815 15.0402 7.88929 15.2377 8.04761C15.3068 8.14656 15.3957 8.22572 15.4846 8.30487V8.29498Z" fill="white" />
	<path d="M15.0203 4.9208C15.0105 4.85154 15.0302 4.79217 15.0895 4.74269C15.4944 4.3469 15.8796 3.91152 16.3142 3.55531C16.7192 3.20899 17.1834 2.98141 17.7365 3.0012C18.1415 3.01109 18.4971 3.16941 18.8428 3.39699C19.0897 3.5652 19.2872 3.79279 19.5144 3.98079C19.7218 4.149 19.9292 4.3469 20.0873 4.57448C20.1465 4.66353 20.2256 4.7328 20.3046 4.79217C20.6108 5.05933 20.7688 5.41555 20.8972 5.78166C21.1046 6.39514 20.996 6.97894 20.591 7.49347C20.1861 8.008 19.6823 8.41369 19.228 8.87875C19.1983 8.90844 19.149 8.91833 19.1095 8.93812C19.0206 8.93812 18.9514 8.87875 18.902 8.82928C18.4279 8.35432 17.9637 7.87937 17.4896 7.40442C16.8278 6.73156 16.1562 6.05871 15.4846 5.39576C15.3265 5.23744 15.1389 5.1187 15.0401 4.9208H15.0203Z" fill="white" />
</svg>
