<svg xmlns="http://www.w3.org/2000/svg" width="28" height="28" viewBox="0 0 28 28" fill="none">
	<path fill-rule="evenodd" clip-rule="evenodd" d="M14.0001 23.0423C13.5169 23.0423 13.1251 22.6506 13.1251 22.1673L13.1251 5.83401C13.1251 5.35076 13.5169 4.95901 14.0001 4.95901C14.4834 4.95901 14.8751 5.35076 14.8751 5.83401L14.8751 22.1673C14.8751 22.6506 14.4834 23.0423 14.0001 23.0423Z" fill="white" />
	<path fill-rule="evenodd" clip-rule="evenodd" d="M13.3814 5.21472C13.7231 4.87301 14.2771 4.87301 14.6188 5.21472L19.2855 9.88139C19.6272 10.2231 19.6272 10.7771 19.2855 11.1188C18.9438 11.4605 18.3898 11.4605 18.0481 11.1188L13.3814 6.45216C13.0397 6.11045 13.0397 5.55643 13.3814 5.21472Z" fill="white" />
	<path fill-rule="evenodd" clip-rule="evenodd" d="M8.71459 11.1188C8.37289 10.7771 8.37289 10.2231 8.71459 9.88139L13.3813 5.21472C13.723 4.87301 14.277 4.87301 14.6187 5.21472C14.9604 5.55643 14.9604 6.11045 14.6187 6.45216L9.95203 11.1188C9.61032 11.4605 9.0563 11.4605 8.71459 11.1188Z" fill="white" />
</svg>
