<svg width="512" height="512" viewBox="0 0 512 512" fill="none" xmlns="http://www.w3.org/2000/svg">
<g clip-path="url(#clip0_119_5)">
<path d="M430.9 3.30322H81.0998C36.3096 3.30322 0 39.9523 0 85.1612V433.445C0 478.654 36.3096 515.303 81.0998 515.303H430.9C475.69 515.303 512 478.654 512 433.445V85.1612C512 39.9523 475.69 3.30322 430.9 3.30322Z" fill="#0071EE"/>
<path fill-rule="evenodd" clip-rule="evenodd" d="M141.583 247.064L101.941 177.913C98.9378 172.697 96.9843 166.935 96.1931 160.957C95.4017 154.979 95.7885 148.902 97.3305 143.075C98.8727 137.248 101.54 131.784 105.181 126.997C108.821 122.21 113.362 118.192 118.545 115.176H119.029C129.489 109.082 141.923 107.421 153.597 110.558C165.272 113.694 175.233 121.373 181.293 131.906L300.493 339.915C303.482 345.144 305.42 350.911 306.196 356.893C306.973 362.875 306.572 368.953 305.017 374.777C303.463 380.604 300.784 386.064 297.136 390.847C293.487 395.63 288.939 399.64 283.751 402.653H283.267C272.794 408.721 260.361 410.362 248.691 407.214C237.021 404.063 227.064 396.383 221.003 385.852L141.583 247.064ZM359.505 109.042C370.822 109.042 381.881 112.423 391.292 118.757C400.7 125.092 408.033 134.095 412.363 144.629C416.694 155.163 417.827 166.754 415.62 177.937C413.411 189.12 407.963 199.392 399.96 207.454C391.959 215.516 381.766 221.007 370.667 223.231C359.568 225.456 348.066 224.314 337.611 219.951C327.156 215.587 318.221 208.198 311.934 198.718C305.647 189.238 302.292 178.092 302.292 166.69C302.292 151.401 308.32 136.738 319.049 125.927C329.779 115.115 344.33 109.042 359.505 109.042Z" fill="white"/>
</g>
<defs>
<clipPath id="clip0_119_5">
<rect width="512" height="512" fill="white"/>
</clipPath>
</defs>
</svg>
